<svg width="232" height="158" viewBox="0 0 232 158" fill="none" xmlns="http://www.w3.org/2000/svg">
<ellipse cx="116" cy="78.9999" rx="106" ry="59" transform="rotate(-11.3223 116 78.9999)" fill="#CDE7FF"/>
<path d="M53.6108 89.2983C57.1705 89.2983 59.6165 87.5582 60.2528 84.9034L56.892 84.5256C56.4048 85.8182 55.2116 86.4943 53.6605 86.4943C51.3338 86.4943 49.7926 84.9631 49.7628 82.348H60.402V81.2443C60.402 75.8849 57.1804 73.5284 53.4219 73.5284C49.0469 73.5284 46.1932 76.7401 46.1932 81.4531C46.1932 86.2457 49.0071 89.2983 53.6108 89.2983ZM49.7727 79.9219C49.8821 77.973 51.3239 76.3324 53.4716 76.3324C55.5398 76.3324 56.9318 77.8438 56.9517 79.9219H49.7727ZM70.109 89.2983C73.9471 89.2983 76.3931 87.0213 76.6516 83.7798H73.2113C72.9031 85.4205 71.7198 86.3651 70.1388 86.3651C67.8917 86.3651 66.44 84.4858 66.44 81.3636C66.44 78.2812 67.9215 76.4318 70.1388 76.4318C71.869 76.4318 72.9329 77.5455 73.2113 79.017H76.6516C76.4031 75.706 73.8178 73.5284 70.0891 73.5284C65.6147 73.5284 62.7908 76.7599 62.7908 81.4233C62.7908 86.0469 65.5451 89.2983 70.109 89.2983ZM78.5259 76.6804H83.4677V89H86.9478V76.6804H91.8896V73.7273H78.5259V76.6804ZM98.2259 78.6989V73.7273H94.7557V89H101.696C105.584 89 107.821 86.8523 107.831 83.8494C107.821 80.767 105.584 78.6989 101.696 78.6989H98.2259ZM98.2259 81.652H101.696C103.257 81.652 104.381 82.5767 104.381 83.8991C104.381 85.1619 103.257 86.0469 101.696 86.0469H98.2259V81.652ZM117.026 76.6804H121.968V89H125.448V76.6804H130.39V73.7273H117.026V76.6804ZM137.022 89.3082C139.418 89.3082 140.85 88.1847 141.506 86.902H141.625V89H145.086V78.7784C145.086 74.7415 141.794 73.5284 138.881 73.5284C135.669 73.5284 133.203 74.9602 132.408 77.7443L135.769 78.2216C136.127 77.1776 137.141 76.2827 138.901 76.2827C140.571 76.2827 141.486 77.1378 141.486 78.6392V78.6989C141.486 79.733 140.402 79.7827 137.708 80.071C134.745 80.3892 131.911 81.2741 131.911 84.7145C131.911 87.7173 134.108 89.3082 137.022 89.3082ZM137.956 86.6634C136.455 86.6634 135.381 85.9773 135.381 84.6548C135.381 83.2727 136.584 82.696 138.195 82.4673C139.14 82.3381 141.029 82.0994 141.496 81.7216V83.5213C141.496 85.2216 140.124 86.6634 137.956 86.6634ZM148.705 89H152.304V83.2429H154.064L158.25 89H162.605L156.888 81.2244L162.546 73.7273H158.211L153.617 79.892H152.304V73.7273H148.705V89ZM168.116 84.1278V73.7273H164.646V89H168.355L174.45 78.5895V89H177.93V73.7273H174.232L168.116 84.1278ZM188.388 89.2983C191.948 89.2983 194.394 87.5582 195.03 84.9034L191.669 84.5256C191.182 85.8182 189.989 86.4943 188.438 86.4943C186.111 86.4943 184.57 84.9631 184.54 82.348H195.179V81.2443C195.179 75.8849 191.958 73.5284 188.199 73.5284C183.824 73.5284 180.971 76.7401 180.971 81.4531C180.971 86.2457 183.784 89.2983 188.388 89.2983ZM184.55 79.9219C184.659 77.973 186.101 76.3324 188.249 76.3324C190.317 76.3324 191.709 77.8438 191.729 79.9219H184.55Z" fill="#333333"/>
</svg>
