<svg width="230" height="214" viewBox="0 0 230 214" fill="none" xmlns="http://www.w3.org/2000/svg">
<path d="M101.547 15.1322C108.708 7.07811 121.292 7.0781 128.453 15.1322L137.43 25.23C141.558 29.8736 147.789 32.0598 153.913 31.0136L167.727 28.6537C178.775 26.7664 188.843 35.3256 188.758 46.533L188.682 56.5243C188.631 63.2452 192.329 69.4346 198.271 72.5749L207.663 77.5384C218.081 83.044 220.487 96.9085 212.534 105.602L206.322 112.393C201.658 117.491 200.324 124.809 202.889 131.224L206.215 139.544C210.505 150.275 203.715 162.211 192.298 164.007L179.919 165.955C173.552 166.956 168.207 171.284 165.904 177.303L161.692 188.311C157.798 198.491 145.821 202.9 136.255 197.678L123.626 190.782C118.25 187.847 111.75 187.847 106.374 190.782L93.7446 197.678C84.1786 202.9 72.2024 198.491 68.3076 188.311L64.0956 177.303C61.7926 171.284 56.4476 166.956 50.0814 165.955L37.7017 164.007C26.2851 162.211 19.4948 150.275 23.785 139.544L27.111 131.224C29.6759 124.809 28.342 117.491 23.6782 112.393L17.4663 105.602C9.51286 96.9085 11.9191 83.044 22.3369 77.5384L31.7289 72.5749C37.6711 69.4346 41.3689 63.2452 41.318 56.5243L41.2423 46.533C41.1574 35.3256 51.2251 26.7664 62.2728 28.6537L76.0868 31.0136C82.2113 32.0598 88.4423 29.8736 92.5704 25.23L101.547 15.1322Z" fill="#CDE7FF"/>
<path d="M57.0563 87.6024L60.4862 79.3738L57.7407 78.2295L52.7042 90.3127L55.6384 91.5358L63.8938 85.3094L60.4607 93.5458L63.2141 94.6935L68.2506 82.6102L65.3242 81.3904L57.0563 87.6024ZM71.6334 98.2028L77.4863 100.642C80.3183 101.823 82.4733 101.216 83.3062 99.2178C84.0111 97.5265 83.1892 95.7989 81.3622 94.8435C83.0995 95.2167 84.4639 94.779 85.0311 93.418C85.8804 91.3805 84.5996 89.4247 81.744 88.2345L76.67 86.1195L71.6334 98.2028ZM75.2348 97.0724L76.484 94.0751L79.6701 95.4031C80.7163 95.8392 81.1011 96.7106 80.6846 97.7096C80.3239 98.575 79.467 98.8365 78.4208 98.4003L75.2348 97.0724ZM77.2513 92.2343L78.3859 89.5124L80.7931 90.5158C81.9809 91.0109 82.4948 91.8161 82.1505 92.6421C81.7898 93.5074 80.87 93.7427 79.7136 93.2607L77.2513 92.2343ZM89.4613 105.911C93.0013 107.386 96.2907 105.83 97.8482 102.094C99.409 98.3491 98.2018 94.9097 94.6618 93.4342C91.1218 91.9586 87.8292 93.5225 86.2684 97.267C84.7109 101.004 85.9213 104.435 89.4613 105.911ZM90.428 103.636C88.4692 102.82 88.2373 100.673 89.1587 98.4625C90.0801 96.252 91.7777 94.882 93.7365 95.6985C95.6638 96.5018 95.8858 98.6719 94.9644 100.882C94.043 103.093 92.3553 104.439 90.428 103.636ZM100.519 98.8028L104.429 100.432L100.367 110.179L103.12 111.327L107.183 101.58L111.092 103.21L112.066 100.873L101.493 96.4664L100.519 98.8028ZM118.194 106.17L122.104 107.8L118.041 117.546L120.794 118.694L124.857 108.947L128.767 110.577L129.741 108.24L119.168 103.833L118.194 106.17ZM129.85 122.755C131.746 123.545 133.249 123.128 134.191 122.33L134.285 122.369L133.594 124.029L136.331 125.17L139.702 117.083C141.033 113.889 138.829 111.844 136.524 110.883C133.984 109.824 131.56 110.144 130.013 112.084L132.515 113.57C133.142 112.862 134.24 112.489 135.632 113.069C136.954 113.62 137.395 114.598 136.9 115.786L136.88 115.833C136.539 116.651 135.666 116.333 133.439 115.673C130.989 114.947 128.456 114.713 127.321 117.435C126.331 119.811 127.545 121.794 129.85 122.755ZM131.461 120.97C130.273 120.475 129.65 119.578 130.086 118.532C130.542 117.438 131.684 117.379 133.034 117.729C133.824 117.938 135.397 118.373 135.892 118.228L135.298 119.652C134.737 120.997 133.176 121.685 131.461 120.97ZM139.195 126.364L142.042 127.551L143.941 122.996L145.333 123.576L146.747 129.511L150.192 130.948L148.233 122.91L155.182 118.845L151.752 117.415L146.084 120.777L145.046 120.345L147.079 115.467L144.231 114.28L139.195 126.364ZM156.159 128.91L159.589 120.682L156.844 119.537L151.807 131.621L154.741 132.844L162.997 126.617L159.564 134.854L162.317 136.001L167.353 123.918L164.427 122.698L156.159 128.91ZM170.492 139.686C173.309 140.86 175.818 140.29 177.197 138.399L174.662 136.992C173.851 137.854 172.684 137.996 171.456 137.484C169.616 136.717 168.901 134.997 169.74 132.918L178.157 136.427L178.521 135.554C180.289 131.313 178.517 128.387 175.543 127.147C172.082 125.704 168.765 127.304 167.211 131.033C165.63 134.825 166.85 138.168 170.492 139.686ZM170.548 131.002C171.277 129.496 172.959 128.674 174.658 129.382C176.294 130.064 176.897 131.719 176.228 133.369L170.548 131.002Z" fill="#333333"/>
</svg>
