<svg width="196" height="183" viewBox="0 0 196 183" fill="none" xmlns="http://www.w3.org/2000/svg">
<path d="M84.5474 15.1322C91.7075 7.07811 104.292 7.07811 111.453 15.1322L116.133 20.3967C120.261 25.0403 126.492 27.2265 132.616 26.1803L139.8 24.9532C150.848 23.0659 160.915 31.625 160.83 42.8325L160.802 46.5514C160.751 53.2723 164.449 59.4617 170.391 62.6021L173.921 64.4677C184.339 69.9732 186.745 83.8377 178.792 92.5317L176.95 94.5455C172.286 99.6436 170.952 106.961 173.517 113.377L174.493 115.818C178.783 126.549 171.992 138.485 160.576 140.281L154.843 141.183C148.477 142.184 143.132 146.513 140.829 152.532L138.878 157.631C134.983 167.81 123.007 172.22 113.441 166.997L106.626 163.276C101.25 160.341 94.7503 160.341 89.3744 163.276L82.5589 166.997C72.9929 172.22 61.0168 167.81 57.122 157.631L55.171 152.532C52.868 146.513 47.5229 142.184 41.1567 141.183L35.4241 140.281C24.0075 138.485 17.2173 126.549 21.5074 115.818L22.4831 113.377C25.0481 106.961 23.7141 99.6436 19.0503 94.5455L17.208 92.5317C9.25458 83.8377 11.6608 69.9732 22.0786 64.4677L25.6087 62.6021C31.551 59.4617 35.2488 53.2723 35.1978 46.5514L35.1697 42.8325C35.0848 31.625 45.1525 23.0659 56.2002 24.9532L63.3836 26.1803C69.508 27.2265 75.7391 25.0403 79.8672 20.3967L84.5474 15.1322Z" fill="#FAFAFA"/>
<path d="M53.8255 71.3801C55.9683 72.6032 58.0596 72.1114 59.2369 70.384L57.3161 69.2877C56.6212 70.1055 55.6596 70.2558 54.7769 69.752C53.5223 69.0359 53.3106 67.524 54.3056 65.7809C55.2878 64.0599 56.7044 63.4995 57.9423 64.2061C58.9083 64.7575 59.1474 65.7182 58.8339 66.6286L60.7547 67.7249C61.671 65.7971 60.9216 63.7575 58.8398 62.5693C56.3417 61.1434 53.7353 62.0477 52.2492 64.6513C50.7758 67.2327 51.2774 69.9257 53.8255 71.3801ZM66.0494 70.5115L67.6337 67.7358L63.4424 65.3435L62.4981 66.9978L64.752 68.2843L60.8293 75.1569L64.7041 77.3686C66.8747 78.6076 68.8082 78.1214 69.7707 76.448C70.7474 74.7239 70.1574 72.8563 67.9868 71.6174L66.0494 70.5115ZM65.1083 72.1603L67.0458 73.2661C67.9173 73.7636 68.2499 74.6379 67.8285 75.3763C67.4261 76.0813 66.5168 76.2173 65.6452 75.7199L63.7078 74.614L65.1083 72.1603ZM73.5288 82.6263C75.5162 83.7607 77.4364 83.5687 78.6377 82.2893L76.8817 81.0073C76.1978 81.5737 75.3161 81.571 74.4501 81.0767C73.1511 80.3352 72.7786 78.9892 73.5953 77.5197L79.5353 80.9101L79.887 80.2939C81.5949 77.3017 80.5472 74.9594 78.4488 73.7616C76.0061 72.3674 73.3894 73.2511 71.8875 75.8825C70.3602 78.5583 70.9585 81.1593 73.5288 82.6263ZM74.374 76.1683C75.0561 75.1151 76.3839 74.6585 77.583 75.343C78.7377 76.002 79.0332 77.2894 78.3821 78.456L74.374 76.1683ZM83.9826 77.0674L79.1156 85.5944L90.2906 91.9728L95.1576 83.4458L93.2201 82.34L89.2974 89.2126L86.616 87.6822L90.5388 80.8095L88.6014 79.7037L84.6786 86.5763L81.9973 85.0459L85.92 78.1733L83.9826 77.0674ZM97.5411 88.4863L99.1254 85.7106L97.188 84.6048L92.321 93.1317L96.1959 95.3434C98.3665 96.5823 100.3 96.0962 101.262 94.4228C102.239 92.6987 101.649 90.8311 99.4786 89.5922L97.5411 88.4863ZM96.6 90.1351L98.5375 91.2409C99.4091 91.7384 99.7417 92.6127 99.3203 93.3511C98.9178 94.0561 98.0085 94.1921 97.137 93.6946L95.1995 92.5888L96.6 90.1351ZM111.462 100.959L112.531 93.362L110.088 91.9678L105.221 100.495L107.159 101.601L110.438 95.8549L109.429 102.897L110.834 103.698L116.496 99.2318L113.182 105.039L115.103 106.135L119.97 97.608L117.527 96.2138L111.462 100.959ZM120.809 109.613C122.796 110.747 124.716 110.555 125.918 109.276L124.162 107.994C123.478 108.56 122.596 108.557 121.73 108.063C120.431 107.322 120.059 105.976 120.875 104.506L126.815 107.896L127.167 107.28C128.875 104.288 127.827 101.946 125.729 100.748C123.286 99.3538 120.669 100.237 119.167 102.869C117.64 105.545 118.238 108.146 120.809 109.613ZM121.654 103.155C122.336 102.101 123.664 101.645 124.863 102.329C126.018 102.988 126.313 104.276 125.662 105.442L121.654 103.155ZM133.2 105.16L131.263 104.054L126.396 112.581L128.333 113.687L130.301 110.239L133.604 112.124L131.636 115.572L133.568 116.675L138.435 108.148L136.503 107.045L134.545 110.476L131.242 108.59L133.2 105.16ZM140.642 120.712L142.524 121.786L147.391 113.259L143.688 111.146C141.601 109.955 139.696 110.288 138.766 111.928C138.146 113.002 138.269 114.154 139.047 115.15L135.135 117.569L137.111 118.697L140.691 116.486L142.473 117.503L140.642 120.712ZM143.31 116.038L141.422 114.961C140.54 114.457 140.314 113.717 140.684 113.082C141.043 112.44 141.835 112.252 142.756 112.778L144.577 113.817L143.31 116.038Z" fill="#333333"/>
</svg>
