<svg width="172" height="161" viewBox="0 0 172 161" fill="none" xmlns="http://www.w3.org/2000/svg">
<path d="M72.5474 6.13223C79.7075 -1.92189 92.2925 -1.9219 99.4526 6.13222L104.133 11.3967C108.261 16.0403 114.492 18.2265 120.616 17.1803L127.8 15.9532C138.848 14.0659 148.915 22.625 148.83 33.8325L148.802 37.5514C148.751 44.2723 152.449 50.4617 158.391 53.6021L161.921 55.4677C172.339 60.9733 174.745 74.8377 166.792 83.5317L164.95 85.5455C160.286 90.6436 158.952 97.9613 161.517 104.377L162.493 106.818C166.783 117.549 159.992 129.485 148.576 131.281L142.843 132.183C136.477 133.184 131.132 137.513 128.829 143.532L126.878 148.631C122.983 158.81 111.007 163.22 101.441 157.997L94.6256 154.276C89.2497 151.341 82.7503 151.341 77.3744 154.276L70.5589 157.997C60.9929 163.22 49.0168 158.81 45.122 148.631L43.171 143.532C40.868 137.513 35.5229 133.184 29.1567 132.183L23.4241 131.281C12.0075 129.485 5.21728 117.549 9.50743 106.818L10.4831 104.377C13.0481 97.9614 11.7141 90.6436 7.0503 85.5455L5.20801 83.5317C-2.74542 74.8377 -0.339192 60.9732 10.0786 55.4677L13.6087 53.6021C19.551 50.4617 23.2488 44.2723 23.1978 37.5514L23.1697 33.8325C23.0848 22.625 33.1525 14.0659 44.2002 15.9532L51.3836 17.1803C57.508 18.2265 63.7391 16.0403 67.8672 11.3967L72.5474 6.13223Z" fill="#FAFAFA"/>
</svg>
